<?xml version="1.0" encoding="UTF-8" standalone="no"?>
<svg
   xmlns:dc="http://purl.org/dc/elements/1.1/"
   xmlns:cc="http://creativecommons.org/ns#"
   xmlns:rdf="http://www.w3.org/1999/02/22-rdf-syntax-ns#"
   xmlns:svg="http://www.w3.org/2000/svg"
   xmlns="http://www.w3.org/2000/svg"
   version="1.1"
   id="svg2"
   viewBox="0 0 595.00002 255"
   height="255"
   width="595">
  <defs
     id="defs4">
    <clipPath
       id="clipPath4343"
       clipPathUnits="userSpaceOnUse">
      <circle
         style="display:inline;opacity:1;fill:#ff8554;fill-opacity:1;stroke:none;stroke-width:4.13999987;stroke-miterlimit:4;stroke-dasharray:none;stroke-dashoffset:0;stroke-opacity:1"
         id="circle4345"
         cx="299.99997"
         cy="231.49609"
         r="160.00002" />
    </clipPath>
    <clipPath
       id="clipPath4184"
       clipPathUnits="userSpaceOnUse">
      <circle
         r="160.00002"
         cy="231.49609"
         cx="299.99997"
         id="circle4186"
         style="display:inline;opacity:1;fill:#ffffff;fill-opacity:1;stroke:none;stroke-width:4.13999987;stroke-miterlimit:4;stroke-dasharray:none;stroke-dashoffset:0;stroke-opacity:1" />
    </clipPath>
    <clipPath
       id="clipPath4490"
       clipPathUnits="userSpaceOnUse">
      <path
         id="path4492"
         d="m 152.49996,103.99609 0,255 307.5,0 0,-88.42578 c -1.72178,-0.47958 -3.37828,-1.10906 -4.96484,-1.90234 -4.01205,-2.00602 -7.1587,-4.87793 -9.44141,-8.61328 -2.24813,-3.73536 -3.37305,-8.14429 -3.37305,-13.22852 l 15.30469,0 c 0,4.29514 0.82833,7.42542 2.47461,9.40235 l 0,-19.59766 c -4.81647,-2.31809 -8.46431,-4.90301 -10.93164,-7.75586 -3.32031,-3.87369 -4.98047,-8.43815 -4.98047,-13.69531 0,-6.36394 2.24788,-11.46558 6.74414,-15.30469 2.64295,-2.25962 5.70121,-3.85535 9.16797,-4.79688 l 0,-91.08203 -307.5,0 z m 19.58203,91.10547 52.34766,0 0,12.71094 -18.67774,0 0,62.82617 -15.30468,0 0,-62.82617 -18.36524,0 0,-12.71094 z m 61.11524,0 43.26757,0 0,12.71094 -28.01562,0 0,17.8457 23.76172,0 0,12.29688 -23.76172,0 0,20.02539 28.11914,0 0,12.6582 -43.37109,0 0,-75.53711 z m 52.08789,0 15.25195,0 22.35937,49.59766 0,-49.59766 15.20118,0 0,75.53711 -15.25196,0 -22.30859,-49.54492 0,49.54492 -15.25195,0 0,-75.53711 z m 65.16015,0 15.25196,0 22.36132,49.59766 0,-49.59766 15.20118,0 0,75.53711 -15.25391,0 -22.30859,-49.54492 0,49.54492 -15.25196,0 0,-75.53711 z m 65.83594,0 15.25195,0 0,75.53711 -15.25195,0 0,-75.53711 z m 43.71875,16.35352 c -0.43445,1.11608 -0.6582,2.38874 -0.6582,3.82812 0,1.06517 0.22082,2.08 0.6582,3.04492 l 0,-6.87304 z"
         style="opacity:1;fill:#ffffff;fill-opacity:1;fill-rule:evenodd;stroke:none;stroke-width:4.13999987;stroke-miterlimit:4;stroke-dasharray:none;stroke-dashoffset:0;stroke-opacity:1" />
    </clipPath>
    <clipPath
       id="clipPath4560"
       clipPathUnits="userSpaceOnUse">
      <path
         clip-path="url(#clipPath4490)"
         style="display:inline;fill:#ff8554;fill-opacity:1;fill-rule:evenodd;stroke:#ff8554;stroke-width:15.00000191;stroke-linecap:butt;stroke-linejoin:miter;stroke-miterlimit:4;stroke-dasharray:none;stroke-opacity:1"
         d="m 159.99994,231.49604 c 1e-5,-70 50.00002,-120.00001 120.00003,-119.99999 70,-2e-5 70,30.00002 170.00002,30.00003 100,-1e-5 100,-30.00005 170.00002,-30.00003 C 690,111.49603 740,161.49604 739.99995,231.49604 740,301.49606 690,351.49607 620.00001,351.49607 c -70.00002,0 -70.00002,-29.99998 -170.00002,-29.99997 -100.00002,-1e-5 -100.00002,29.99997 -170.00002,29.99997 -70.00001,0 -120.00002,-50.00001 -120.00003,-120.00003 z"
         id="path4562" />
    </clipPath>
    <clipPath
       id="clipPath4611"
       clipPathUnits="userSpaceOnUse">
      <path
         id="path4613"
         d="m 280,103.99609 c -73.57144,-2e-5 -127.49999,53.92857 -127.5,127.5 1e-5,73.57145 53.92856,127.5 127.5,127.5 36.07143,0 55.25723,-8.0199 76.24609,-15.42773 20.98887,-7.40783 44.5039,-14.57227 93.75391,-14.57227 49.25,0 72.76504,7.16444 93.75391,14.57227 20.98886,7.40783 40.17465,15.42773 76.24609,15.42773 l 0,-15 c -33.92858,0 -49.74277,-6.9801 -71.25391,-14.57226 C 527.23496,321.83167 500.75,313.99609 450,313.99609 c -50.75001,0 -77.23496,7.83558 -98.74609,15.42774 -21.51114,7.59216 -37.32534,14.57226 -71.25391,14.57226 -66.42858,0 -112.49999,-46.0714 -112.5,-112.5 1e-5,-66.42857 46.07142,-112.50002 112.5,-112.5 33.92857,-10e-6 49.74277,6.9801 71.25391,14.57227 21.51113,7.59217 47.99608,15.42773 98.74609,15.42773 50.75,0 77.23496,-7.83556 98.74609,-15.42773 21.51114,-7.59217 37.32533,-14.57228 71.25391,-14.57227 66.42856,-2e-5 112.50005,46.07144 112.5,112.5 l 15,0 c 5e-5,-73.57143 -53.92858,-127.50002 -127.5,-127.5 -36.07144,-10e-6 -55.25723,8.01989 -76.24609,15.42774 C 522.76504,126.83167 499.25,133.99609 450,133.99609 c -49.25001,0 -72.76504,-7.16442 -93.75391,-14.57226 C 335.25723,112.01598 316.07143,103.99608 280,103.99609 Z"
         style="color:#000000;font-style:normal;font-variant:normal;font-weight:normal;font-stretch:normal;font-size:medium;line-height:normal;font-family:sans-serif;text-indent:0;text-align:start;text-decoration:none;text-decoration-line:none;text-decoration-style:solid;text-decoration-color:#000000;letter-spacing:normal;word-spacing:normal;text-transform:none;direction:ltr;block-progression:tb;writing-mode:lr-tb;baseline-shift:baseline;text-anchor:start;white-space:normal;clip-rule:nonzero;display:inline;overflow:visible;visibility:visible;opacity:1;isolation:auto;mix-blend-mode:normal;color-interpolation:sRGB;color-interpolation-filters:linearRGB;solid-color:#000000;solid-opacity:1;fill:#ffffff;fill-opacity:1;fill-rule:evenodd;stroke:none;stroke-width:15.00000191;stroke-linecap:butt;stroke-linejoin:miter;stroke-miterlimit:4;stroke-dasharray:none;stroke-dashoffset:0;stroke-opacity:1;color-rendering:auto;image-rendering:auto;shape-rendering:auto;text-rendering:auto;enable-background:accumulate" />
    </clipPath>
  </defs>
  <metadata
     id="metadata7">
    <rdf:RDF>
      <cc:Work
         rdf:about="">
        <dc:format>image/svg+xml</dc:format>
        <dc:type
           rdf:resource="http://purl.org/dc/dcmitype/StillImage" />
        <dc:title></dc:title>
      </cc:Work>
    </rdf:RDF>
  </metadata>
  <g
     transform="translate(0,-797.36219)"
     id="layer1" />
  <g
     transform="translate(0,-276.49604)"
     style="display:none"
     id="layer4">
    <circle
       r="160.00002"
       cy="231.49609"
       cx="299.99997"
       id="path4176"
       style="opacity:1;fill:#ff8554;fill-opacity:1;stroke:none;stroke-width:4.13999987;stroke-miterlimit:4;stroke-dasharray:none;stroke-dashoffset:0;stroke-opacity:1" />
    <circle
       style="opacity:1;fill:#ff8554;fill-opacity:1;stroke:none;stroke-width:4.13999987;stroke-miterlimit:4;stroke-dasharray:none;stroke-dashoffset:0;stroke-opacity:1"
       id="circle4178"
       cx="600"
       cy="231.49609"
       r="160.00002" />
  </g>
  <g
     transform="translate(0,-276.49604)"
     style="display:inline"
     id="layer5" />
  <g
     transform="translate(0,-276.49604)"
     style="display:inline"
     id="layer6">
    <path
       id="text4187"
       d="m 315.55652,366.56449 c -4.56253,0 -8.59943,0.8393 -12.11914,2.50782 a 160,160 0 0 1 4.0625,34.92382 160,160 0 0 1 -0.25,5.00782 c 1.73623,0.84649 3.6152,1.65977 5.66211,2.43554 4.15039,1.69475 7.0022,3.33871 8.55859,4.92969 1.59099,1.5564 2.38672,3.87297 2.38672,6.95117 0,5.63762 -2.66194,8.45703 -7.98828,8.45703 -3.83911,0 -6.60604,-0.98559 -8.30078,-2.95703 -0.73284,-0.85249 -1.2989,-1.9415 -1.71484,-3.24023 a 160,160 0 0 1 -2.96094,15.7539 c 3.91904,1.89014 8.24281,2.8418 12.97656,2.8418 7.19401,0 12.88338,-1.85001 17.06836,-5.55078 4.18498,-3.70077 6.27734,-8.83675 6.27734,-15.4082 0,-5.98348 -1.6783,-10.91146 -5.0332,-14.78516 -3.32031,-3.8737 -8.66431,-7.14347 -16.03125,-9.80664 -4.21956,-1.7985 -7.1582,-3.52734 -8.81836,-5.1875 -1.66016,-1.69474 -2.49023,-3.5791 -2.49023,-5.6543 0,-2.66316 0.74324,-4.77368 2.23047,-6.33008 1.48722,-1.59098 3.56144,-2.38671 6.22461,-2.38671 2.8361,0 4.9991,0.93505 6.48632,2.80273 1.52181,1.83309 2.28125,4.51318 2.28125,8.04102 l 15.20117,0 c 0,-4.53085 -0.98559,-8.57821 -2.95703,-12.14063 -1.93685,-3.56242 -4.71997,-6.3112 -8.35156,-8.24805 -3.63159,-1.97143 -7.76579,-2.95703 -12.40039,-2.95703 z m 124.97852,0 c -8.54289,0 -15.21786,2.92245 -20.02539,8.76758 -4.80754,5.81055 -7.21094,13.90332 -7.21094,24.2793 l 0,12.91797 c 0.0692,9.99552 2.52506,17.77726 7.36719,23.3457 4.84212,5.53385 11.49894,8.30078 19.97265,8.30078 8.5083,0 15.14893,-2.80127 19.92188,-8.4043 4.80753,-5.60302 7.21289,-13.47159 7.21289,-23.60546 l 0,-12.91797 c -0.0692,-10.34139 -2.52507,-18.36548 -7.36719,-24.07227 -4.84212,-5.74137 -11.46655,-8.61133 -19.87109,-8.61133 z m 114.29296,0 c -6.9519,0 -12.69376,1.93685 -17.2246,5.81055 -4.49626,3.83911 -6.74414,8.94076 -6.74414,15.30469 -10e-6,5.25716 1.66015,9.82161 4.98046,13.69531 3.32032,3.83911 8.76734,7.19377 16.3418,10.06445 4.15039,1.69475 7.00415,3.33871 8.56055,4.92969 1.59098,1.5564 2.38672,3.87297 2.38672,6.95117 0,5.63762 -2.6639,8.45703 -7.99024,8.45703 -3.83911,0 -6.60604,-0.98559 -8.30078,-2.95703 -1.69474,-1.97143 -2.54297,-5.13623 -2.54297,-9.49414 l -15.30469,0 c 0,5.08423 1.12492,9.49317 3.37305,13.22852 2.28272,3.73535 5.42936,6.60726 9.44141,8.61328 4.01204,2.00602 8.45727,3.00781 13.33398,3.00781 7.19401,0 12.88338,-1.85001 17.06836,-5.55078 4.18498,-3.70077 6.27735,-8.83675 6.27735,-15.4082 0,-5.98348 -1.67831,-10.91146 -5.03321,-14.78516 -3.32031,-3.8737 -8.66235,-7.14347 -16.02929,-9.80664 -4.21957,-1.7985 -7.16016,-3.52734 -8.82032,-5.1875 -1.66015,-1.69474 -2.49023,-3.5791 -2.49023,-5.6543 0,-2.66316 0.74324,-4.77368 2.23047,-6.33008 1.48722,-1.59098 3.56339,-2.38671 6.22656,-2.38671 2.8361,0 4.99715,0.93505 6.48437,2.80273 1.52181,1.83309 2.28321,4.51318 2.28321,8.04102 l 15.20117,0 c 0,-4.53085 -0.9856,-8.57821 -2.95703,-12.14063 -1.93685,-3.56242 -4.72193,-6.3112 -8.35352,-8.24805 -3.63159,-1.97143 -7.76383,-2.95703 -12.39844,-2.95703 z m -205.39257,1.03711 0,75.53711 15.25195,0 0,-32.32031 22.51562,0 0,32.32031 15.20118,0 0,-75.53711 -15.20118,0 0,30.55664 -22.51562,0 0,-30.55664 -15.25195,0 z m 121.50195,0 0,12.71094 18.36523,0 0,62.82617 15.30469,0 0,-62.82617 18.67774,0 0,-12.71094 -52.34766,0 z m -30.40234,11.72461 c 4.08121,0 7.09049,1.66016 9.02734,4.98047 1.93685,3.32031 2.90625,8.38761 2.90625,15.20117 l 0,13.125 c -0.0346,6.43311 -1.02018,11.18937 -2.95703,14.26758 -1.93685,3.04362 -4.89559,4.56641 -8.87305,4.56641 -4.1158,0 -7.15942,-1.55713 -9.13086,-4.66992 -1.97143,-3.14738 -2.95703,-8.02483 -2.95703,-14.63086 l 0,-13.43555 c 0.0692,-6.53687 1.07292,-11.39616 3.00977,-14.57813 1.93685,-3.21655 4.92798,-4.82617 8.97461,-4.82617 z"
       clip-path="none"
       style="font-style:normal;font-variant:normal;font-weight:normal;font-stretch:normal;font-size:106.25001526px;line-height:125%;font-family:Symbol;-inkscape-font-specification:Symbol;text-align:center;letter-spacing:0px;word-spacing:0px;text-anchor:middle;display:inline;fill:#ff8554;fill-opacity:1;stroke:none;stroke-width:1px;stroke-linecap:butt;stroke-linejoin:miter;stroke-opacity:1" />
    <path
       id="path4350"
       d="m 467.49988,276.49613 c -36.07144,-10e-6 -55.25724,8.01989 -76.24609,15.42774 -20.98887,7.40784 -44.50392,14.57226 -93.75391,14.57226 -8.67799,0 -16.51961,-0.23361 -23.72656,-0.64062 a 160,160 0 0 1 10.50586,15.43164 c 4.23678,0.12405 8.59541,0.20898 13.2207,0.20898 50.74999,0 77.23497,-7.83556 98.74609,-15.42773 21.51114,-7.59217 37.32533,-14.57228 71.25391,-14.57227 66.42855,-2e-5 112.50005,46.07145 112.5,112.5 5e-5,66.42859 -46.07145,112.5 -112.5,112.5 -33.92858,0 -49.74277,-6.9801 -71.25391,-14.57226 -21.51112,-7.59216 -47.9961,-15.42774 -98.74609,-15.42774 -4.64239,0 -9.01651,0.086 -13.26758,0.21094 a 160,160 0 0 1 -10.61133,15.43555 c 7.24734,-0.41238 15.14106,-0.64649 23.87891,-0.64649 49.24999,0 72.76504,7.16444 93.75391,14.57227 20.98885,7.40783 40.17465,15.42773 76.24609,15.42773 73.57141,0 127.50005,-53.92856 127.5,-127.5 5e-5,-73.57142 -53.92859,-127.50002 -127.5,-127.5 z"
       style="color:#000000;font-style:normal;font-variant:normal;font-weight:normal;font-stretch:normal;font-size:medium;line-height:normal;font-family:sans-serif;text-indent:0;text-align:start;text-decoration:none;text-decoration-line:none;text-decoration-style:solid;text-decoration-color:#000000;letter-spacing:normal;word-spacing:normal;text-transform:none;direction:ltr;block-progression:tb;writing-mode:lr-tb;baseline-shift:baseline;text-anchor:start;white-space:normal;clip-rule:nonzero;display:inline;overflow:visible;visibility:visible;opacity:1;isolation:auto;mix-blend-mode:normal;color-interpolation:sRGB;color-interpolation-filters:linearRGB;solid-color:#000000;solid-opacity:1;fill:#ff8554;fill-opacity:1;fill-rule:evenodd;stroke:none;stroke-width:15.00000191;stroke-linecap:butt;stroke-linejoin:miter;stroke-miterlimit:4;stroke-dasharray:none;stroke-dashoffset:0;stroke-opacity:1;color-rendering:auto;image-rendering:auto;shape-rendering:auto;text-rendering:auto;enable-background:accumulate" />
    <circle
       transform="translate(-152.50006,172.50004)"
       clip-path="url(#clipPath4560)"
       style="display:inline;opacity:1;fill:#ff8554;fill-opacity:1;stroke:none;stroke-width:4.13999987;stroke-miterlimit:4;stroke-dasharray:none;stroke-dashoffset:0;stroke-opacity:1"
       id="circle4157"
       cx="299.99997"
       cy="231.49609"
       r="160.00002" />
    <circle
       transform="translate(-152.50006,172.50004)"
       clip-path="url(#clipPath4611)"
       style="display:inline;opacity:1;fill:#ff8554;fill-opacity:1;stroke:none;stroke-width:4.13999987;stroke-miterlimit:4;stroke-dasharray:none;stroke-dashoffset:0;stroke-opacity:1"
       id="circle4568"
       cx="299.99997"
       cy="231.49609"
       r="160.00002" />
  </g>
  <g
     transform="translate(0,-276.49604)"
     style="display:none"
     id="layer3">
    <path
       id="path4186"
       d="m 280,103.99609 c -73.57144,-2e-5 -127.49999,53.92857 -127.5,127.5 1e-5,73.57145 53.92856,127.5 127.5,127.5 36.07143,0 55.25723,-8.0199 76.24609,-15.42773 20.98887,-7.40783 44.5039,-14.57227 93.75391,-14.57227 49.25,0 72.76504,7.16444 93.75391,14.57227 20.98886,7.40783 40.17465,15.42773 76.24609,15.42773 73.57142,0 127.50005,-53.92855 127.5,-127.5 5e-5,-73.57143 -53.92858,-127.50002 -127.5,-127.5 -36.07144,-10e-6 -55.25723,8.01989 -76.24609,15.42774 C 522.76504,126.83167 499.25,133.99609 450,133.99609 c -49.25001,0 -72.76504,-7.16442 -93.75391,-14.57226 C 335.25723,112.01598 316.07143,103.99608 280,103.99609 Z m 0,15 c 33.92857,-10e-6 49.74277,6.9801 71.25391,14.57227 21.51113,7.59217 47.99608,15.42773 98.74609,15.42773 50.75,0 77.23496,-7.83556 98.74609,-15.42773 21.51114,-7.59217 37.32533,-14.57228 71.25391,-14.57227 66.42856,-2e-5 112.50005,46.07144 112.5,112.5 5e-5,66.42859 -46.07144,112.5 -112.5,112.5 -33.92858,0 -49.74277,-6.9801 -71.25391,-14.57226 C 527.23496,321.83167 500.75,313.99609 450,313.99609 c -50.75001,0 -77.23496,7.83558 -98.74609,15.42774 -21.51114,7.59216 -37.32534,14.57226 -71.25391,14.57226 -66.42858,0 -112.49999,-46.0714 -112.5,-112.5 1e-5,-66.42857 46.07142,-112.50002 112.5,-112.5 z"
       style="color:#000000;font-style:normal;font-variant:normal;font-weight:normal;font-stretch:normal;font-size:medium;line-height:normal;font-family:sans-serif;text-indent:0;text-align:start;text-decoration:none;text-decoration-line:none;text-decoration-style:solid;text-decoration-color:#000000;letter-spacing:normal;word-spacing:normal;text-transform:none;direction:ltr;block-progression:tb;writing-mode:lr-tb;baseline-shift:baseline;text-anchor:start;white-space:normal;clip-rule:nonzero;display:inline;overflow:visible;visibility:visible;opacity:1;isolation:auto;mix-blend-mode:normal;color-interpolation:sRGB;color-interpolation-filters:linearRGB;solid-color:#000000;solid-opacity:1;fill:#ffffff;fill-opacity:1;fill-rule:evenodd;stroke:none;stroke-width:15.00000191;stroke-linecap:butt;stroke-linejoin:miter;stroke-miterlimit:4;stroke-dasharray:none;stroke-dashoffset:0;stroke-opacity:1;color-rendering:auto;image-rendering:auto;shape-rendering:auto;text-rendering:auto;enable-background:accumulate" />
  </g>
  <g
     transform="translate(0,-276.49604)"
     style="display:none"
     id="layer2">
    <text
       id="text4140"
       y="270.63889"
       x="452.28564"
       style="font-style:normal;font-variant:normal;font-weight:normal;font-stretch:normal;font-size:106.25001526px;line-height:125%;font-family:Symbol;-inkscape-font-specification:Symbol;text-align:center;letter-spacing:0px;word-spacing:0px;text-anchor:middle;fill:#ffffff;fill-opacity:1;stroke:none;stroke-width:1px;stroke-linecap:butt;stroke-linejoin:miter;stroke-opacity:1"
       xml:space="preserve"><tspan
         style="font-style:normal;font-variant:normal;font-weight:bold;font-stretch:normal;font-size:106.25001526px;font-family:'Roboto Condensed';-inkscape-font-specification:'Roboto Condensed, Bold';fill:#ffffff;fill-opacity:1"
         y="270.63889"
         x="452.28564"
         id="tspan4142">TENNISHOTS</tspan></text>
  </g>
</svg>
