<?xml version="1.0" encoding="UTF-8" standalone="no"?>
<svg
   xmlns:dc="http://purl.org/dc/elements/1.1/"
   xmlns:cc="http://creativecommons.org/ns#"
   xmlns:rdf="http://www.w3.org/1999/02/22-rdf-syntax-ns#"
   xmlns:svg="http://www.w3.org/2000/svg"
   xmlns="http://www.w3.org/2000/svg"
   xmlns:sodipodi="http://sodipodi.sourceforge.net/DTD/sodipodi-0.dtd"
   xmlns:inkscape="http://www.inkscape.org/namespaces/inkscape"
   width="592"
   height="320"
   viewBox="0 0 591.99996 320.00001"
   id="svg2"
   version="1.1"
   inkscape:version="0.91 r13725"
   sodipodi:docname="tennishots_logo_inverse2.svg">
  <sodipodi:namedview
     pagecolor="#cbf5ff"
     bordercolor="#666666"
     borderopacity="1"
     objecttolerance="10"
     gridtolerance="10"
     guidetolerance="10"
     inkscape:pageopacity="0"
     inkscape:pageshadow="2"
     inkscape:window-width="1855"
     inkscape:window-height="1056"
     id="namedview4858"
     showgrid="false"
     inkscape:zoom="0.49053498"
     inkscape:cx="303.75"
     inkscape:cy="160"
     inkscape:window-x="65"
     inkscape:window-y="24"
     inkscape:window-maximized="1"
     inkscape:current-layer="svg2" />
  <defs
     id="defs4">
    <clipPath
       clipPathUnits="userSpaceOnUse"
       id="clipPath4343">
      <circle
         r="160.00002"
         cy="231.49609"
         cx="299.99997"
         id="circle4345"
         style="display:inline;opacity:1;fill:#ff8554;fill-opacity:1;stroke:none;stroke-width:4.13999987;stroke-miterlimit:4;stroke-dasharray:none;stroke-dashoffset:0;stroke-opacity:1" />
    </clipPath>
  </defs>
  <metadata
     id="metadata7">
    <rdf:RDF>
      <cc:Work
         rdf:about="">
        <dc:format>image/svg+xml</dc:format>
        <dc:type
           rdf:resource="http://purl.org/dc/dcmitype/StillImage" />
        <dc:title></dc:title>
      </cc:Work>
    </rdf:RDF>
  </metadata>
  <g
     id="layer1"
     transform="translate(0,-732.36215)" />
  <g
     id="layer4"
     style="display:none"
     transform="translate(0,-211.496)">
    <circle
       style="opacity:1;fill:#ff8554;fill-opacity:1;stroke:none;stroke-width:4.13999987;stroke-miterlimit:4;stroke-dasharray:none;stroke-dashoffset:0;stroke-opacity:1"
       id="path4176"
       cx="299.99997"
       cy="231.49609"
       r="160.00002" />
    <circle
       r="160.00002"
       cy="231.49609"
       cx="600"
       id="circle4178"
       style="opacity:1;fill:#ff8554;fill-opacity:1;stroke:none;stroke-width:4.13999987;stroke-miterlimit:4;stroke-dasharray:none;stroke-dashoffset:0;stroke-opacity:1" />
  </g>
  <g
     id="layer5"
     style="display:none"
     transform="translate(0,-211.496)" />
  <g
     id="layer6"
     style="display:inline"
     transform="translate(0,-211.496)">
    <path
       style="font-style:normal;font-variant:normal;font-weight:normal;font-stretch:normal;font-size:106.25001526px;line-height:125%;font-family:Symbol;-inkscape-font-specification:Symbol;text-align:center;letter-spacing:0px;word-spacing:0px;text-anchor:middle;display:inline;fill:#ffffff;fill-opacity:1;stroke:none;stroke-width:1px;stroke-linecap:butt;stroke-linejoin:miter;stroke-opacity:1"
       clip-path="none"
       d="m 328.05658,334.06449 c -4.56253,0 -8.59943,0.8393 -12.11914,2.50782 a 160,160 0 0 1 4.0625,34.92382 160,160 0 0 1 -0.25,5.00782 c 1.73623,0.84649 3.6152,1.65977 5.66211,2.43554 4.15039,1.69475 7.0022,3.33871 8.55859,4.92969 1.59099,1.5564 2.38672,3.87297 2.38672,6.95117 0,5.63762 -2.66194,8.45703 -7.98828,8.45703 -3.83911,0 -6.60604,-0.98559 -8.30078,-2.95703 -0.73284,-0.85249 -1.2989,-1.9415 -1.71484,-3.24023 a 160,160 0 0 1 -2.96094,15.7539 c 3.91904,1.89014 8.24281,2.8418 12.97656,2.8418 7.19401,0 12.88338,-1.85001 17.06836,-5.55078 4.18498,-3.70077 6.27734,-8.83675 6.27734,-15.4082 0,-5.98348 -1.6783,-10.91146 -5.0332,-14.78516 -3.32031,-3.8737 -8.66431,-7.14347 -16.03125,-9.80664 -4.21956,-1.7985 -7.1582,-3.52734 -8.81836,-5.1875 -1.66016,-1.69474 -2.49023,-3.5791 -2.49023,-5.6543 0,-2.66316 0.74324,-4.77368 2.23047,-6.33008 1.48722,-1.59098 3.56144,-2.38671 6.22461,-2.38671 2.8361,0 4.9991,0.93505 6.48632,2.80273 1.52181,1.83309 2.28125,4.51318 2.28125,8.04102 l 15.20117,0 c 0,-4.53085 -0.98559,-8.57821 -2.95703,-12.14063 -1.93685,-3.56242 -4.71997,-6.3112 -8.35156,-8.24805 -3.63159,-1.97143 -7.76579,-2.95703 -12.40039,-2.95703 z m 124.97852,0 c -8.54289,0 -15.21786,2.92245 -20.02539,8.76758 -4.80754,5.81055 -7.21094,13.90332 -7.21094,24.2793 l 0,12.91797 c 0.0692,9.99552 2.52506,17.77726 7.36719,23.3457 4.84212,5.53385 11.49894,8.30078 19.97265,8.30078 8.5083,0 15.14893,-2.80127 19.92188,-8.4043 4.80753,-5.60302 7.21289,-13.47159 7.21289,-23.60546 l 0,-12.91797 c -0.0692,-10.34139 -2.52507,-18.36548 -7.36719,-24.07227 -4.84212,-5.74137 -11.46655,-8.61133 -19.87109,-8.61133 z m 114.29296,0 c -6.9519,0 -12.69376,1.93685 -17.2246,5.81055 -4.49626,3.83911 -6.74414,8.94076 -6.74414,15.30469 -10e-6,5.25716 1.66015,9.82161 4.98046,13.69531 3.32032,3.83911 8.76734,7.19377 16.3418,10.06445 4.15039,1.69475 7.00415,3.33871 8.56055,4.92969 1.59098,1.5564 2.38672,3.87297 2.38672,6.95117 0,5.63762 -2.6639,8.45703 -7.99024,8.45703 -3.83911,0 -6.60604,-0.98559 -8.30078,-2.95703 -1.69474,-1.97143 -2.54297,-5.13623 -2.54297,-9.49414 l -15.30469,0 c 0,5.08423 1.12492,9.49317 3.37305,13.22852 2.28272,3.73535 5.42936,6.60726 9.44141,8.61328 4.01204,2.00602 8.45727,3.00781 13.33398,3.00781 7.19401,0 12.88338,-1.85001 17.06836,-5.55078 4.18498,-3.70077 6.27735,-8.83675 6.27735,-15.4082 0,-5.98348 -1.67831,-10.91146 -5.03321,-14.78516 -3.32031,-3.8737 -8.66235,-7.14347 -16.02929,-9.80664 -4.21957,-1.7985 -7.16016,-3.52734 -8.82032,-5.1875 -1.66015,-1.69474 -2.49023,-3.5791 -2.49023,-5.6543 0,-2.66316 0.74324,-4.77368 2.23047,-6.33008 1.48722,-1.59098 3.56339,-2.38671 6.22656,-2.38671 2.8361,0 4.99715,0.93505 6.48437,2.80273 1.52181,1.83309 2.28321,4.51318 2.28321,8.04102 l 15.20117,0 c 0,-4.53085 -0.9856,-8.57821 -2.95703,-12.14063 -1.93685,-3.56242 -4.72193,-6.3112 -8.35352,-8.24805 -3.63159,-1.97143 -7.76383,-2.95703 -12.39844,-2.95703 z m -205.39257,1.03711 0,75.53711 15.25195,0 0,-32.32031 22.51562,0 0,32.32031 15.20118,0 0,-75.53711 -15.20118,0 0,30.55664 -22.51562,0 0,-30.55664 -15.25195,0 z m 121.50195,0 0,12.71094 18.36523,0 0,62.82617 15.30469,0 0,-62.82617 18.67774,0 0,-12.71094 -52.34766,0 z m -30.40234,11.72461 c 4.08121,0 7.09049,1.66016 9.02734,4.98047 1.93685,3.32031 2.90625,8.38761 2.90625,15.20117 l 0,13.125 c -0.0346,6.43311 -1.02018,11.18937 -2.95703,14.26758 -1.93685,3.04362 -4.89559,4.56641 -8.87305,4.56641 -4.1158,0 -7.15942,-1.55713 -9.13086,-4.66992 -1.97143,-3.14738 -2.95703,-8.02483 -2.95703,-14.63086 l 0,-13.43555 c 0.0692,-6.53687 1.07292,-11.39616 3.00977,-14.57813 1.93685,-3.21655 4.92798,-4.82617 8.97461,-4.82617 z"
       id="text4187"
       inkscape:connector-curvature="0" />
    <path
       style="display:inline;opacity:1;fill:#ffffff;fill-opacity:1;stroke:none;stroke-width:4.13999987;stroke-miterlimit:4;stroke-dasharray:none;stroke-dashoffset:0;stroke-opacity:1"
       d="m 159.99994,211.49613 a 159.99998,159.99998 0 0 0 -160.000001035162,160 159.99998,159.99998 0 0 0 160.000001035162,160 159.99998,159.99998 0 0 0 126.08789,-61.85156 c -33.58126,1.91394 -52.5823,7.83225 -69.8418,13.92383 -20.98885,7.40783 -40.17466,15.42773 -76.24609,15.42773 -73.571431,0 -127.499991,-53.92856 -127.500001,-127.5 1e-5,-73.57142 53.92857,-127.50002 127.500001,-127.5 36.07143,-1e-5 55.25724,8.01989 76.24609,15.42774 17.22844,6.08063 36.18789,11.98917 69.65625,13.91406 a 159.99998,159.99998 0 0 0 -125.90234,-61.8418 z m -20,47.5 c -53.454931,-10e-6 -93.720281,29.83843 -107.412111,76.10547 l 51.8418,0 0,12.71094 -18.67774,0 0,62.82617 -15.30468,0 0,-62.82617 -18.36524,0 0,-10.9668 c -2.9977,10.74375 -4.58203,22.3465 -4.58203,34.65039 10e-6,66.4286 46.07143,112.5 112.500001,112.5 33.92857,0 49.74277,-6.9801 71.25391,-14.57226 19.52194,-6.8901 43.20581,-13.96045 85.33984,-15.21289 a 159.99998,159.99998 0 0 0 18.79883,-45.37696 c -0.11836,-0.0571 -0.23981,-0.10721 -0.35742,-0.16601 -4.01205,-2.00602 -7.1587,-4.87793 -9.44141,-8.61328 -2.24813,-3.73535 -3.37305,-8.14429 -3.37305,-13.22852 l 15.30469,0 c 0,2.47346 0.28217,4.54924 0.82813,6.25391 a 159.99998,159.99998 0 0 0 1.39648,-16.57617 c -4.6886,-2.2859 -8.2586,-4.82727 -10.68164,-7.62891 -3.32031,-3.8737 -4.98047,-8.43815 -4.98047,-13.69531 0,-6.36393 2.24788,-11.46558 6.74414,-15.30469 1.55725,-1.33139 3.26222,-2.42894 5.10547,-3.30273 a 159.99998,159.99998 0 0 0 -19.35156,-47.79102 c -42.12914,-1.25309 -65.8113,-8.32321 -85.33203,-15.21289 -21.51114,-7.59217 -37.32534,-14.57228 -71.25391,-14.57227 z m -46.802731,76.10547 43.267571,0 0,12.71094 -28.01562,0 0,17.8457 23.76172,0 0,12.29688 -23.76172,0 0,20.02539 28.11914,0 0,12.6582 -43.371091,0 0,-75.53711 z m 52.087891,0 15.25195,0 22.35937,49.59766 0,-49.59766 15.20118,0 0,75.53711 -15.25196,0 -22.30859,-49.54492 0,49.54492 -15.25195,0 0,-75.53711 z m 65.16015,0 15.25196,0 22.36132,49.59766 0,-49.59766 15.20118,0 0,75.53711 -15.25391,0 -22.30859,-49.54492 0,49.54492 -15.25196,0 0,-75.53711 z m 65.83594,0 15.25195,0 0,75.53711 -15.25195,0 0,-75.53711 z"
       id="circle4234"
       inkscape:connector-curvature="0" />
  </g>
  <g
     id="layer3"
     style="display:none"
     transform="translate(0,-211.496)">
    <path
       style="fill:none;fill-rule:evenodd;stroke:#ffffff;stroke-width:15.00000191;stroke-linecap:butt;stroke-linejoin:miter;stroke-miterlimit:4;stroke-dasharray:none;stroke-opacity:1"
       d="m 159.99994,231.49604 c 1e-5,-70 50.00002,-120.00001 120.00003,-119.99999 70,-2e-5 70,30.00002 170.00002,30.00003 100,-1e-5 100,-30.00005 170.00002,-30.00003 C 690,111.49603 740,161.49604 739.99995,231.49604 740,301.49606 690,351.49607 620.00001,351.49607 c -70.00002,0 -70.00002,-29.99998 -170.00002,-29.99997 -100.00002,-1e-5 -100.00002,29.99997 -170.00002,29.99997 -70.00001,0 -120.00002,-50.00001 -120.00003,-120.00003 z"
       id="path4186"
       inkscape:connector-curvature="0" />
  </g>
  <g
     id="layer2"
     style="display:none"
     transform="translate(0,-211.496)">
    <text
       xml:space="preserve"
       style="font-style:normal;font-variant:normal;font-weight:normal;font-stretch:normal;font-size:106.25001526px;line-height:125%;font-family:Symbol;-inkscape-font-specification:Symbol;text-align:center;letter-spacing:0px;word-spacing:0px;text-anchor:middle;fill:#ffffff;fill-opacity:1;stroke:none;stroke-width:1px;stroke-linecap:butt;stroke-linejoin:miter;stroke-opacity:1"
       x="452.28564"
       y="270.63889"
       id="text4140"
       sodipodi:linespacing="125%"><tspan
         id="tspan4142"
         x="452.28564"
         y="270.63889"
         style="font-style:normal;font-variant:normal;font-weight:bold;font-stretch:normal;font-size:106.25001526px;font-family:'Roboto Condensed';-inkscape-font-specification:'Roboto Condensed, Bold';fill:#ffffff;fill-opacity:1">TENNISHOTS</tspan></text>
  </g>
</svg>
