<?xml version="1.0" encoding="UTF-8" standalone="no"?>
<!-- Created with Inkscape (http://www.inkscape.org/) -->

<svg
   xmlns:dc="http://purl.org/dc/elements/1.1/"
   xmlns:cc="http://creativecommons.org/ns#"
   xmlns:rdf="http://www.w3.org/1999/02/22-rdf-syntax-ns#"
   xmlns:svg="http://www.w3.org/2000/svg"
   xmlns="http://www.w3.org/2000/svg"
   xmlns:sodipodi="http://sodipodi.sourceforge.net/DTD/sodipodi-0.dtd"
   xmlns:inkscape="http://www.inkscape.org/namespaces/inkscape"
   width="584"
   height="104"
   viewBox="0 0 584.00002 104"
   id="svg2"
   version="1.1"
   inkscape:version="0.91 r13725"
   sodipodi:docname="tennishots_logo_nav3.svg"
   inkscape:export-filename="/home/tennistat/webapps/tennistat2/frontend/src/assets/img/tennishots_logo_nav.png"
   inkscape:export-xdpi="17.647058"
   inkscape:export-ydpi="17.647058">
  <defs
     id="defs4">
    <clipPath
       clipPathUnits="userSpaceOnUse"
       id="clipPath4343">
      <circle
         r="160.00002"
         cy="231.49609"
         cx="299.99997"
         id="circle4345"
         style="display:inline;opacity:1;fill:#ff8554;fill-opacity:1;stroke:none;stroke-width:4.13999987;stroke-miterlimit:4;stroke-dasharray:none;stroke-dashoffset:0;stroke-opacity:1" />
    </clipPath>
    <clipPath
       clipPathUnits="userSpaceOnUse"
       id="clipPath4184">
      <circle
         style="display:inline;opacity:1;fill:#ffffff;fill-opacity:1;stroke:none;stroke-width:4.13999987;stroke-miterlimit:4;stroke-dasharray:none;stroke-dashoffset:0;stroke-opacity:1"
         id="circle4186"
         cx="299.99997"
         cy="231.49609"
         r="160.00002" />
    </clipPath>
    <clipPath
       clipPathUnits="userSpaceOnUse"
       id="clipPath4490">
      <path
         style="opacity:1;fill:#ffffff;fill-opacity:1;fill-rule:evenodd;stroke:none;stroke-width:4.13999987;stroke-miterlimit:4;stroke-dasharray:none;stroke-dashoffset:0;stroke-opacity:1"
         d="m 152.49996,103.99609 0,255 307.5,0 0,-88.42578 c -1.72178,-0.47958 -3.37828,-1.10906 -4.96484,-1.90234 -4.01205,-2.00602 -7.1587,-4.87793 -9.44141,-8.61328 -2.24813,-3.73536 -3.37305,-8.14429 -3.37305,-13.22852 l 15.30469,0 c 0,4.29514 0.82833,7.42542 2.47461,9.40235 l 0,-19.59766 c -4.81647,-2.31809 -8.46431,-4.90301 -10.93164,-7.75586 -3.32031,-3.87369 -4.98047,-8.43815 -4.98047,-13.69531 0,-6.36394 2.24788,-11.46558 6.74414,-15.30469 2.64295,-2.25962 5.70121,-3.85535 9.16797,-4.79688 l 0,-91.08203 -307.5,0 z m 19.58203,91.10547 52.34766,0 0,12.71094 -18.67774,0 0,62.82617 -15.30468,0 0,-62.82617 -18.36524,0 0,-12.71094 z m 61.11524,0 43.26757,0 0,12.71094 -28.01562,0 0,17.8457 23.76172,0 0,12.29688 -23.76172,0 0,20.02539 28.11914,0 0,12.6582 -43.37109,0 0,-75.53711 z m 52.08789,0 15.25195,0 22.35937,49.59766 0,-49.59766 15.20118,0 0,75.53711 -15.25196,0 -22.30859,-49.54492 0,49.54492 -15.25195,0 0,-75.53711 z m 65.16015,0 15.25196,0 22.36132,49.59766 0,-49.59766 15.20118,0 0,75.53711 -15.25391,0 -22.30859,-49.54492 0,49.54492 -15.25196,0 0,-75.53711 z m 65.83594,0 15.25195,0 0,75.53711 -15.25195,0 0,-75.53711 z m 43.71875,16.35352 c -0.43445,1.11608 -0.6582,2.38874 -0.6582,3.82812 0,1.06517 0.22082,2.08 0.6582,3.04492 l 0,-6.87304 z"
         id="path4492"
         inkscape:connector-curvature="0" />
    </clipPath>
    <clipPath
       clipPathUnits="userSpaceOnUse"
       id="clipPath4560">
      <path
         sodipodi:nodetypes="ccccccccc"
         inkscape:connector-curvature="0"
         id="path4562"
         d="m 159.99994,231.49604 c 1e-5,-70 50.00002,-120.00001 120.00003,-119.99999 70,-2e-5 70,30.00002 170.00002,30.00003 100,-1e-5 100,-30.00005 170.00002,-30.00003 C 690,111.49603 740,161.49604 739.99995,231.49604 740,301.49606 690,351.49607 620.00001,351.49607 c -70.00002,0 -70.00002,-29.99998 -170.00002,-29.99997 -100.00002,-1e-5 -100.00002,29.99997 -170.00002,29.99997 -70.00001,0 -120.00002,-50.00001 -120.00003,-120.00003 z"
         style="display:inline;fill:#ff8554;fill-opacity:1;fill-rule:evenodd;stroke:#ff8554;stroke-width:15.00000191;stroke-linecap:butt;stroke-linejoin:miter;stroke-miterlimit:4;stroke-dasharray:none;stroke-opacity:1"
         clip-path="url(#clipPath4490)" />
    </clipPath>
    <clipPath
       clipPathUnits="userSpaceOnUse"
       id="clipPath4611">
      <path
         style="color:#000000;font-style:normal;font-variant:normal;font-weight:normal;font-stretch:normal;font-size:medium;line-height:normal;font-family:sans-serif;text-indent:0;text-align:start;text-decoration:none;text-decoration-line:none;text-decoration-style:solid;text-decoration-color:#000000;letter-spacing:normal;word-spacing:normal;text-transform:none;direction:ltr;block-progression:tb;writing-mode:lr-tb;baseline-shift:baseline;text-anchor:start;white-space:normal;clip-rule:nonzero;display:inline;overflow:visible;visibility:visible;opacity:1;isolation:auto;mix-blend-mode:normal;color-interpolation:sRGB;color-interpolation-filters:linearRGB;solid-color:#000000;solid-opacity:1;fill:#ffffff;fill-opacity:1;fill-rule:evenodd;stroke:none;stroke-width:15.00000191;stroke-linecap:butt;stroke-linejoin:miter;stroke-miterlimit:4;stroke-dasharray:none;stroke-dashoffset:0;stroke-opacity:1;color-rendering:auto;image-rendering:auto;shape-rendering:auto;text-rendering:auto;enable-background:accumulate"
         d="m 280,103.99609 c -73.57144,-2e-5 -127.49999,53.92857 -127.5,127.5 1e-5,73.57145 53.92856,127.5 127.5,127.5 36.07143,0 55.25723,-8.0199 76.24609,-15.42773 20.98887,-7.40783 44.5039,-14.57227 93.75391,-14.57227 49.25,0 72.76504,7.16444 93.75391,14.57227 20.98886,7.40783 40.17465,15.42773 76.24609,15.42773 l 0,-15 c -33.92858,0 -49.74277,-6.9801 -71.25391,-14.57226 C 527.23496,321.83167 500.75,313.99609 450,313.99609 c -50.75001,0 -77.23496,7.83558 -98.74609,15.42774 -21.51114,7.59216 -37.32534,14.57226 -71.25391,14.57226 -66.42858,0 -112.49999,-46.0714 -112.5,-112.5 1e-5,-66.42857 46.07142,-112.50002 112.5,-112.5 33.92857,-10e-6 49.74277,6.9801 71.25391,14.57227 21.51113,7.59217 47.99608,15.42773 98.74609,15.42773 50.75,0 77.23496,-7.83556 98.74609,-15.42773 21.51114,-7.59217 37.32533,-14.57228 71.25391,-14.57227 66.42856,-2e-5 112.50005,46.07144 112.5,112.5 l 15,0 c 5e-5,-73.57143 -53.92858,-127.50002 -127.5,-127.5 -36.07144,-10e-6 -55.25723,8.01989 -76.24609,15.42774 C 522.76504,126.83167 499.25,133.99609 450,133.99609 c -49.25001,0 -72.76504,-7.16442 -93.75391,-14.57226 C 335.25723,112.01598 316.07143,103.99608 280,103.99609 Z"
         id="path4613"
         inkscape:connector-curvature="0" />
    </clipPath>
    <clipPath
       clipPathUnits="userSpaceOnUse"
       id="clipPath4219">
      <path
         style="fill:#ffffff;fill-opacity:1;fill-rule:evenodd;stroke:none;stroke-width:1px;stroke-linecap:butt;stroke-linejoin:miter;stroke-opacity:1"
         d="m 598.44694,435.26439 -304.29505,0 50.71584,-98.58852 253.57921,0 z"
         id="path4221"
         inkscape:connector-curvature="0" />
    </clipPath>
    <clipPath
       clipPathUnits="userSpaceOnUse"
       id="clipPath4826">
      <path
         style="fill:#ffffff;fill-opacity:1;fill-rule:evenodd;stroke:none;stroke-width:1px;stroke-linecap:butt;stroke-linejoin:miter;stroke-opacity:1"
         d="m 598.44696,415.5467 -324.5814,0 91.28852,-98.58853 233.29288,0 z"
         id="path4828"
         inkscape:connector-curvature="0" />
    </clipPath>
    <clipPath
       clipPathUnits="userSpaceOnUse"
       id="clipPath4832">
      <path
         style="fill:#ffffff;fill-opacity:1;fill-rule:evenodd;stroke:none;stroke-width:1px;stroke-linecap:butt;stroke-linejoin:miter;stroke-opacity:1"
         d="m 10,321.49605 0,100 260,0 22.53125,-25.03516 c -1.25674,-3.13883 -1.88672,-6.66545 -1.88672,-10.58007 l 11.41016,0 8.55273,-9.50391 c -5.89885,-2.6407 -10.27655,-5.63743 -13.10156,-8.99805 -3.32653,-3.99287 -4.99024,-8.69829 -4.99024,-14.11718 0,-6.55972 2.25119,-11.81818 6.75586,-15.7754 4.53933,-3.99286 10.2929,-5.99023 17.25782,-5.99023 4.64327,0 8.78348,1.01674 12.42187,3.04883 3.63839,1.99643 6.42867,4.82994 8.36914,8.50195 0.41945,0.7798 0.78291,1.58729 1.11328,2.41211 L 360,321.49605 l -350,0 z m 10,11.07031 52.445312,0 0,13.10157 -18.71289,0 0,64.75781 -15.332031,0 0,-64.75781 -18.400391,0 0,-13.10157 z m 61.228516,0 43.349604,0 0,13.10157 -28.068354,0 0,18.39453 23.806644,0 0,12.67382 -23.806644,0 0,20.64258 28.171874,0 0,13.04688 -43.453124,0 0,-77.85938 z m 52.185544,0 15.28125,0 22.40235,51.12305 0,-51.12305 15.22851,0 0,77.85938 -15.28125,0 -22.34961,-51.06836 0,51.06836 -15.28125,0 0,-77.85938 z m 65.28321,0 15.28125,0 22.40234,51.12305 0,-51.12305 15.22852,0 0,77.85938 -15.28126,0 -22.3496,-51.06836 0,51.06836 -15.28125,0 0,-77.85938 z m 65.95898,0 15.28125,0 0,77.85938 -15.28125,0 0,-77.85938 z m 51.61328,11.81836 c -2.66815,0 -4.74827,0.81906 -6.23828,2.45899 -1.49001,1.60427 -2.23437,3.77834 -2.23437,6.52343 0,2.13904 0.83087,4.0832 2.49414,5.83008 1.66326,1.71123 4.60847,3.49383 8.83593,5.34766 0.54176,0.20149 1.0504,0.41288 1.57032,0.62109 l 8.64453,-9.60547 -4.28907,0 c 0,-3.63636 -0.76245,-6.39958 -2.28711,-8.28906 -1.49,-1.92513 -3.65468,-2.88672 -6.49609,-2.88672 z"
         id="path4834"
         inkscape:connector-curvature="0" />
    </clipPath>
  </defs>
  <sodipodi:namedview
     id="base"
     pagecolor="#c8f6f6"
     bordercolor="#666666"
     borderopacity="1.0"
     inkscape:pageopacity="0"
     inkscape:pageshadow="2"
     inkscape:zoom="1.979899"
     inkscape:cx="289.42362"
     inkscape:cy="56.383216"
     inkscape:document-units="px"
     inkscape:current-layer="layer5"
     showgrid="true"
     inkscape:window-width="1855"
     inkscape:window-height="1056"
     inkscape:window-x="65"
     inkscape:window-y="24"
     inkscape:window-maximized="1"
     units="px">
    <inkscape:grid
       type="xygrid"
       id="grid4136"
       spacingx="10"
       spacingy="10.000001" />
  </sodipodi:namedview>
  <metadata
     id="metadata7">
    <rdf:RDF>
      <cc:Work
         rdf:about="">
        <dc:format>image/svg+xml</dc:format>
        <dc:type
           rdf:resource="http://purl.org/dc/dcmitype/StillImage" />
        <dc:title></dc:title>
      </cc:Work>
    </rdf:RDF>
  </metadata>
  <g
     inkscape:label="Layer 1"
     inkscape:groupmode="layer"
     id="layer1"
     transform="translate(0,-948.3622)" />
  <g
     inkscape:groupmode="layer"
     id="layer4"
     inkscape:label="ball"
     style="display:none"
     transform="translate(0,-427.49605)">
    <circle
       style="opacity:1;fill:#ff8554;fill-opacity:1;stroke:none;stroke-width:4.13999987;stroke-miterlimit:4;stroke-dasharray:none;stroke-dashoffset:0;stroke-opacity:1"
       id="path4176"
       cx="299.99997"
       cy="231.49609"
       r="160.00002" />
    <circle
       r="160.00002"
       cy="231.49609"
       cx="600"
       id="circle4178"
       style="opacity:1;fill:#ff8554;fill-opacity:1;stroke:none;stroke-width:4.13999987;stroke-miterlimit:4;stroke-dasharray:none;stroke-dashoffset:0;stroke-opacity:1" />
  </g>
  <g
     inkscape:groupmode="layer"
     id="layer5"
     inkscape:label="work"
     style="display:inline"
     transform="translate(0,-427.49605)">
    <rect
       style="opacity:1;fill:#ff5400;fill-opacity:1;stroke:none;stroke-width:4;stroke-miterlimit:4;stroke-dasharray:none;stroke-opacity:1"
       id="rect4830"
       width="580"
       height="100.00001"
       x="10"
       y="321.49603"
       ry="9.9999971"
       clip-path="url(#clipPath4832)"
       transform="translate(-8,108.00001)" />
    <text
       sodipodi:linespacing="125%"
       id="text4196"
       y="404.63345"
       x="305.03317"
       style="font-style:normal;font-variant:normal;font-weight:normal;font-stretch:normal;font-size:107.9728775px;line-height:125%;font-family:Symbol;-inkscape-font-specification:Symbol;text-align:center;letter-spacing:0px;word-spacing:0px;text-anchor:middle;display:inline;fill:#ff5400;fill-opacity:1;stroke:none;stroke-width:1px;stroke-linecap:butt;stroke-linejoin:miter;stroke-opacity:1"
       xml:space="preserve"
       transform="matrix(0.98588516,0,0,1.0143169,-8,108.00001)"
       clip-path="url(#clipPath4826)"><tspan
         style="font-style:normal;font-variant:normal;font-weight:bold;font-stretch:normal;font-size:107.9728775px;font-family:'Roboto Condensed';-inkscape-font-specification:'Roboto Condensed, Bold';fill:#ff5400;fill-opacity:1"
         y="404.63345"
         x="305.03317"
         id="tspan4198"
         sodipodi:role="line">TENNISHOTS</tspan></text>
    <rect
       style="opacity:1;fill:none;fill-opacity:1;stroke:#ff5300;stroke-width:4;stroke-miterlimit:4;stroke-dasharray:none;stroke-opacity:1"
       id="rect4836"
       width="580"
       height="100.00001"
       x="2"
       y="429.49603"
       ry="10" />
  </g>
  <g
     inkscape:groupmode="layer"
     id="layer6"
     inkscape:label="text2"
     style="display:none"
     transform="translate(0,-427.49605)">
    <path
       style="display:inline;fill:#ff5400;fill-opacity:1;fill-rule:evenodd;stroke:none;stroke-width:1px;stroke-linecap:butt;stroke-linejoin:miter;stroke-opacity:1"
       d="m 2.0000003,429.49606 0,100 279.9999997,0 8.33398,-16.66992 c -1.67234,-1.52725 -3.11314,-3.29271 -4.31054,-5.3086 -2.25234,-3.85026 -3.37891,-8.39607 -3.37891,-13.63671 l 15.33203,0 c 0,1.18665 0.0651,2.28188 0.1836,3.29687 l 6.05468,-12.11133 c -6.71593,-2.80484 -11.63428,-6.02985 -14.70898,-9.6875 -3.32653,-3.99287 -4.99024,-8.69829 -4.99024,-14.11719 0,-6.55971 2.25119,-11.81817 6.75586,-15.77539 4.53933,-3.99287 10.2929,-5.99023 17.25782,-5.99023 4.64327,0 8.78348,1.01674 12.42187,3.04883 1.22248,0.67079 2.3403,1.44473 3.3711,2.30469 L 332,429.49606 l -329.9999997,0 z M 12,440.56637 l 52.445312,0 0,13.10156 -18.71289,0 0,64.75782 -15.332031,0 0,-64.75782 -18.400391,0 0,-13.10156 z m 61.228516,0 43.349604,0 0,13.10156 -28.068354,0 0,18.39454 23.806644,0 0,12.67382 -23.806644,0 0,20.64258 28.171874,0 0,13.04688 -43.453124,0 0,-77.85938 z m 52.185544,0 15.28125,0 22.40235,51.12305 0,-51.12305 15.22851,0 0,77.85938 -15.28125,0 -22.34961,-51.06836 0,51.06836 -15.28125,0 0,-77.85938 z m 65.28321,0 15.28125,0 22.40234,51.12305 0,-51.12305 15.22852,0 0,77.85938 -15.28126,0 -22.3496,-51.06836 0,51.06836 -15.28125,0 0,-77.85938 z m 65.95898,0 15.28125,0 0,77.85938 -15.28125,0 0,-77.85938 z m 51.61328,11.81836 c -2.66815,0 -4.74827,0.81906 -6.23828,2.45899 -1.49001,1.60427 -2.23438,3.77834 -2.23437,6.52343 0,2.13904 0.83087,4.0832 2.49414,5.83008 1.5884,1.63422 4.3816,3.33534 8.30859,5.09961 l 6.1543,-12.30859 c -0.35076,-1.92988 -1.01062,-3.5052 -1.98829,-4.7168 -1.49,-1.92513 -3.65468,-2.88672 -6.49609,-2.88672 z"
       id="path4206"
       inkscape:connector-curvature="0" />
    <text
       xml:space="preserve"
       style="font-style:normal;font-variant:normal;font-weight:normal;font-stretch:normal;font-size:107.9728775px;line-height:125%;font-family:Symbol;-inkscape-font-specification:Symbol;text-align:center;letter-spacing:0px;word-spacing:0px;text-anchor:middle;display:inline;fill:#ff5400;fill-opacity:1;stroke:none;stroke-width:1px;stroke-linecap:butt;stroke-linejoin:miter;stroke-opacity:1"
       x="305.03317"
       y="424.35114"
       id="text4140"
       sodipodi:linespacing="125%"
       transform="matrix(0.9858852,0,0,1.0143169,-7.9999997,88.00002)"
       clip-path="url(#clipPath4219)"><tspan
         sodipodi:role="line"
         id="tspan4142"
         x="305.03317"
         y="424.35114"
         style="font-style:normal;font-variant:normal;font-weight:bold;font-stretch:normal;font-size:107.9728775px;font-family:'Roboto Condensed';-inkscape-font-specification:'Roboto Condensed, Bold';fill:#ff5400;fill-opacity:1">TENNISHOTS</tspan></text>
    <path
       style="fill:none;fill-rule:evenodd;stroke:#ff5400;stroke-width:4;stroke-linecap:butt;stroke-linejoin:miter;stroke-miterlimit:4;stroke-dasharray:none;stroke-opacity:1"
       d="m 2,429.49604 579.99998,0 0,100.00001 -579.99998,0 z"
       id="path4226"
       inkscape:connector-curvature="0" />
  </g>
  <g
     inkscape:groupmode="layer"
     id="layer3"
     inkscape:label="contour"
     style="display:none"
     transform="translate(0,-427.49605)">
    <path
       style="color:#000000;font-style:normal;font-variant:normal;font-weight:normal;font-stretch:normal;font-size:medium;line-height:normal;font-family:sans-serif;text-indent:0;text-align:start;text-decoration:none;text-decoration-line:none;text-decoration-style:solid;text-decoration-color:#000000;letter-spacing:normal;word-spacing:normal;text-transform:none;direction:ltr;block-progression:tb;writing-mode:lr-tb;baseline-shift:baseline;text-anchor:start;white-space:normal;clip-rule:nonzero;display:inline;overflow:visible;visibility:visible;opacity:1;isolation:auto;mix-blend-mode:normal;color-interpolation:sRGB;color-interpolation-filters:linearRGB;solid-color:#000000;solid-opacity:1;fill:#ffffff;fill-opacity:1;fill-rule:evenodd;stroke:none;stroke-width:15.00000191;stroke-linecap:butt;stroke-linejoin:miter;stroke-miterlimit:4;stroke-dasharray:none;stroke-dashoffset:0;stroke-opacity:1;color-rendering:auto;image-rendering:auto;shape-rendering:auto;text-rendering:auto;enable-background:accumulate"
       d="m 280,103.99609 c -73.57144,-2e-5 -127.49999,53.92857 -127.5,127.5 1e-5,73.57145 53.92856,127.5 127.5,127.5 36.07143,0 55.25723,-8.0199 76.24609,-15.42773 20.98887,-7.40783 44.5039,-14.57227 93.75391,-14.57227 49.25,0 72.76504,7.16444 93.75391,14.57227 20.98886,7.40783 40.17465,15.42773 76.24609,15.42773 73.57142,0 127.50005,-53.92855 127.5,-127.5 5e-5,-73.57143 -53.92858,-127.50002 -127.5,-127.5 -36.07144,-10e-6 -55.25723,8.01989 -76.24609,15.42774 C 522.76504,126.83167 499.25,133.99609 450,133.99609 c -49.25001,0 -72.76504,-7.16442 -93.75391,-14.57226 C 335.25723,112.01598 316.07143,103.99608 280,103.99609 Z m 0,15 c 33.92857,-10e-6 49.74277,6.9801 71.25391,14.57227 21.51113,7.59217 47.99608,15.42773 98.74609,15.42773 50.75,0 77.23496,-7.83556 98.74609,-15.42773 21.51114,-7.59217 37.32533,-14.57228 71.25391,-14.57227 66.42856,-2e-5 112.50005,46.07144 112.5,112.5 5e-5,66.42859 -46.07144,112.5 -112.5,112.5 -33.92858,0 -49.74277,-6.9801 -71.25391,-14.57226 C 527.23496,321.83167 500.75,313.99609 450,313.99609 c -50.75001,0 -77.23496,7.83558 -98.74609,15.42774 -21.51114,7.59216 -37.32534,14.57226 -71.25391,14.57226 -66.42858,0 -112.49999,-46.0714 -112.5,-112.5 1e-5,-66.42857 46.07142,-112.50002 112.5,-112.5 z"
       id="path4186"
       inkscape:connector-curvature="0" />
  </g>
  <g
     inkscape:groupmode="layer"
     id="layer2"
     inkscape:label="text"
     style="display:inline"
     transform="translate(0,-427.49605)" />
</svg>
